<svg xmlns="http://www.w3.org/2000/svg" viewBox="464 489 80.631 20">
  <defs>
    <style>
      .cls-1 {
        fill: silver;
      }

      .cls-2 {
        fill: #058c6c;
      }
    </style>
  </defs>
  <g id="Logo_1_" transform="translate(464 489)">
    <g id="Artboard-3-Copy-2_1_">
      <g id="logo-1_1_">
        <g id="Group_1_">
          <g id="Group-3_1_">
            <g id="Group-2_1_" transform="translate(47.357)">
              <path id="х_3_" class="cls-1" d="M195.818,12.006,200.707,4.6h3.172l-6.4,9.252,7.143,10.238h-3.333L195.742,15.8l-5.468,8.291H187l7.083-10.272L187.6,4.6h3.308Z" transform="translate(-171.345 -4.209)"/>
              <path id="х_2_" class="cls-2" d="M195.742,15.8l-5.468,8.291H187l7.083-10.272L187.6,4.6h3.308l4.906,7.406h0" transform="translate(-171.345 -4.209)"/>
              <rect id="Rectangle_1_" class="cls-1" width="13.027" height="3.061" transform="translate(0)"/>
              <rect id="Rectangle-Copy_1_" class="cls-1" width="13.027" height="3.061" transform="translate(0 8.41)"/>
              <rect id="Rectangle-Copy-2_1_" class="cls-1" width="13.027" height="3.061" transform="translate(0 16.82)"/>
              <path id="Triangle-2_1_" class="cls-2" d="M291.035,92.422,289.3,94.446l.043-3.946Z" transform="translate(-264.946 -82.804)"/>
            </g>
            <path id="tidex_1_" class="cls-1" d="M230.055,21.8H227.3V2.1h2.755Zm4.787-19.7h6.76a13.54,13.54,0,0,1,3.784.553A10.037,10.037,0,0,1,248.805,4.4a8.977,8.977,0,0,1,2.474,3.061,9.823,9.823,0,0,1,.944,4.481,9.5,9.5,0,0,1-.944,4.379,9.142,9.142,0,0,1-2.474,3.061,10.654,10.654,0,0,1-3.418,1.811,12.461,12.461,0,0,1-3.784.6h-6.76ZM237.6,19.379h3.452a10.524,10.524,0,0,0,3.3-.5,7.559,7.559,0,0,0,2.611-1.446,6.488,6.488,0,0,0,1.709-2.338,7.722,7.722,0,0,0,.612-3.146,7.966,7.966,0,0,0-.612-3.231,6.353,6.353,0,0,0-1.709-2.321,7.589,7.589,0,0,0-2.611-1.42,10.741,10.741,0,0,0-3.3-.485H237.6Z" transform="translate(-208.142 -1.921)"/>
            <g id="Group-4_1_" transform="translate(1.165 0.179)">
              <path id="Path_3_" d="M121.6,2.1h5.272V4.515H121.6Z" transform="translate(-111.489 -2.1)"/>
              <path id="Path_2_" class="cls-2" d="M11.773,21.8H9.018V4.515H2.7V2.1h9.073V21.8Z" transform="translate(-2.7 -2.1)"/>
            </g>
            <g id="Group-5_1_" transform="translate(0 0.085)">
              <path id="Rectangle-22_5_" class="cls-2" d="M2,0H12.128l3.827,2.67H2Z" transform="translate(-2)"/>
              <path id="Rectangle-22_4_" class="cls-1" d="M121.2,0h7.636V2.67h-3.954Z" transform="translate(-111.064)"/>
              <rect id="Rectangle-22_3_" class="cls-2" width="2.67" height="18.597" transform="translate(7.398 1.318)"/>
            </g>
          </g>
        </g>
      </g>
    </g>
  </g>
</svg>
