<svg xmlns="http://www.w3.org/2000/svg" viewBox="847 219 24.008 24">
  <defs>
    <style>
      .cls-1 {
        fill: none;
      }

      .cls-2 {
        fill: #56779e;
      }
    </style>
  </defs>
  <g id="transfer_24px_4" transform="translate(871.004 219) rotate(90)">
    <g id="Layer_1" data-name="Layer 1" transform="translate(0 -0.004)">
      <rect id="_bg_" data-name="&lt;bg&gt;" class="cls-1" width="24" height="24" transform="translate(0 0.004)"/>
      <path id="Path_11" data-name="Path 11" class="cls-2" d="M9.44,16.78a.5.5,0,0,0-.71,0h0a.5.5,0,0,0,0,.71h0l2.33,2.33H9a3,3,0,0,1-3-3V2.91a1.5,1.5,0,1,0-1,0v13.9a4,4,0,0,0,4,4h2.06L8.73,23.14a.5.5,0,0,0,.71.71L12.27,21a1,1,0,0,0,0-1.41Z" transform="translate(0 0.004)"/>
      <path id="Path_12" data-name="Path 12" class="cls-2" d="M19,21.09V7.19a4,4,0,0,0-4-4H12.94L15.27.86a.5.5,0,1,0-.71-.71L11.73,3a1,1,0,0,0,0,1.41l2.83,2.83a.5.5,0,0,0,.71,0h0a.5.5,0,0,0,0-.71h0L12.94,4.19H15a3,3,0,0,1,3,3v13.9a1.5,1.5,0,1,0,1,0Z" transform="translate(0 0.004)"/>
    </g>
  </g>
</svg>
