<svg xmlns="http://www.w3.org/2000/svg" viewBox="0 0 18 17.512">
  <defs>
    <style>
      .cls-1 {
        fill: #fff;
        fill-rule: evenodd;
      }
    </style>
  </defs>
  <path id="Path_5619" data-name="Path 5619" class="cls-1" d="M8.972,0A8.989,8.989,0,0,0,6.11,17.5c.44.055.606-.22.606-.44V15.523c-2.477.55-3.028-1.211-3.028-1.211A2.273,2.273,0,0,0,2.7,12.991c-.826-.55.055-.55.055-.55a1.918,1.918,0,0,1,1.376.936,1.905,1.905,0,0,0,2.587.771,1.917,1.917,0,0,1,.55-1.211c-1.982-.22-4.073-.991-4.073-4.459a3.412,3.412,0,0,1,.936-2.422,3.259,3.259,0,0,1,.11-2.312s.771-.22,2.477.936A7.692,7.692,0,0,1,8.972,4.4a10.132,10.132,0,0,1,2.257.275c1.706-1.156,2.477-.936,2.477-.936a3.447,3.447,0,0,1,.11,2.367,3.56,3.56,0,0,1,.936,2.422c0,3.468-2.092,4.183-4.073,4.4a2.1,2.1,0,0,1,.606,1.651v2.477c0,.22.165.5.606.44A8.989,8.989,0,0,0,8.972,0Z"/>
</svg>
