<?xml version="1.0" encoding="utf-8"?>
<!-- Generator: Adobe Illustrator 22.1.0, SVG Export Plug-In . SVG Version: 6.00 Build 0)  -->
<svg version="1.1" id="Слой_1" xmlns="http://www.w3.org/2000/svg" xmlns:xlink="http://www.w3.org/1999/xlink" x="0px" y="0px"
	 width="40px" height="40px" viewBox="0 0 40 40" enable-background="new 0 0 40 40" xml:space="preserve">
<path id="Path_4612" fill="#54D19C" d="M26,17.7L25.3,17L20,22.3L14.7,17L14,17.7l5.3,5.3l0.7,0.7l0.7-0.7L26,17.7z"/>
<path fill="#54D19C" d="M20,0C8.95428,0,0,8.95428,0,20c0,11.04565,8.95428,20,20,20s20-8.95435,20-20C40,8.95428,31.04572,0,20,0z
	 M20,39C9.50659,39,1,30.49341,1,20S9.50659,1,20,1s19,8.50659,19,19S30.49341,39,20,39z"/>
</svg>
