<?xml version="1.0" encoding="utf-8"?>
<!-- Generator: Adobe Illustrator 22.1.0, SVG Export Plug-In . SVG Version: 6.00 Build 0)  -->
<svg version="1.1" id="Слой_1" xmlns="http://www.w3.org/2000/svg" xmlns:xlink="http://www.w3.org/1999/xlink" x="0px" y="0px"
	 width="40px" height="40px" viewBox="0 0 40 40" enable-background="new 0 0 40 40" xml:space="preserve">
<path id="Path_4612" fill="#FF5800" d="M14,22.3l0.7,0.7l5.3-5.3l5.3,5.3l0.7-0.7L20.7,17L20,16.3L19.3,17L14,22.3z"/>
<path fill="#FF5800" d="M20,40c11.04572,0,20-8.95428,20-20C40,8.95435,31.04572,0,20,0S0,8.95435,0,20C0,31.04572,8.95428,40,20,40
	z M20,1c10.49341,0,19,8.50659,19,19s-8.50659,19-19,19S1,30.49341,1,20S9.50659,1,20,1z"/>
</svg>
