<svg id="logo_EncryptoTel" data-name="logo EncryptoTel" xmlns="http://www.w3.org/2000/svg" viewBox="0 0 40 56"><defs><style>.cls-1{fill:#00b3bd;}.cls-2{fill:#00b0ba;}</style></defs><g id="EncryptoTel"><path class="cls-1" d="M3.28,51.07H.89v2H3.66v.59H.16V48.11H3.63v.59H.89v1.78H3.28Z"/><path class="cls-1" d="M5.12,49.52l0,.52a1.47,1.47,0,0,1,1.22-.59c.87,0,1.31.49,1.31,1.46v2.71H7V50.91a1,1,0,0,0-.2-.66A.82.82,0,0,0,6.16,50a1,1,0,0,0-.6.18,1.26,1.26,0,0,0-.4.48v2.92h-.7v-4.1Z"/><path class="cls-1" d="M10.39,53.13A1,1,0,0,0,11,52.9a.78.78,0,0,0,.31-.57H12a1.22,1.22,0,0,1-.24.67,1.72,1.72,0,0,1-.59.51,1.84,1.84,0,0,1-.79.19,1.71,1.71,0,0,1-1.34-.56,2.22,2.22,0,0,1-.49-1.53v-.12a2.39,2.39,0,0,1,.22-1.06,1.65,1.65,0,0,1,1.6-1,1.64,1.64,0,0,1,1.15.41A1.47,1.47,0,0,1,12,50.93h-.66a1,1,0,0,0-.3-.65.94.94,0,0,0-.67-.26,1,1,0,0,0-.83.39,1.82,1.82,0,0,0-.29,1.11v.13a1.79,1.79,0,0,0,.29,1.09A1,1,0,0,0,10.39,53.13Z"/><path class="cls-1" d="M14.79,50.15a2,2,0,0,0-.35,0,.93.93,0,0,0-.94.58v2.91h-.7v-4.1h.69V50a1.08,1.08,0,0,1,1-.55.72.72,0,0,1,.32,0Z"/><path class="cls-1" d="M16.77,52.6l.95-3.08h.75l-1.64,4.74c-.26.68-.66,1-1.22,1h-.13l-.26-.05v-.57h.19a.9.9,0,0,0,.55-.14,1.1,1.1,0,0,0,.33-.53l.15-.41L15,49.52h.77Z"/><path class="cls-1" d="M22.56,51.62a2.46,2.46,0,0,1-.43,1.51A1.36,1.36,0,0,1,21,53.7a1.51,1.51,0,0,1-1.18-.48v2h-.7V49.52h.64l0,.46A1.44,1.44,0,0,1,21,49.45a1.38,1.38,0,0,1,1.17.55,2.48,2.48,0,0,1,.43,1.55Zm-.7-.08a1.89,1.89,0,0,0-.29-1.1,1,1,0,0,0-.81-.4,1,1,0,0,0-1,.57v2a1,1,0,0,0,1,.56,1,1,0,0,0,.8-.4A2,2,0,0,0,21.86,51.54Z"/><path class="cls-1" d="M24.4,48.53v1h.77v.54H24.4v2.55a.56.56,0,0,0,.11.37.43.43,0,0,0,.35.12,1.6,1.6,0,0,0,.33,0v.56a2.08,2.08,0,0,1-.54.08.88.88,0,0,1-.71-.29,1.19,1.19,0,0,1-.24-.8V50.06H23v-.54h.74v-1Z"/><path class="cls-1" d="M25.73,51.53A2.52,2.52,0,0,1,26,50.45a1.76,1.76,0,0,1,.66-.74,1.79,1.79,0,0,1,1-.26,1.7,1.7,0,0,1,1.35.58,2.19,2.19,0,0,1,.52,1.54v0a2.44,2.44,0,0,1-.23,1.07,1.68,1.68,0,0,1-.65.74,1.83,1.83,0,0,1-1,.27,1.73,1.73,0,0,1-1.36-.58,2.25,2.25,0,0,1-.51-1.54Zm.7.09a1.74,1.74,0,0,0,.32,1.09,1.06,1.06,0,0,0,1.69,0,1.93,1.93,0,0,0,.32-1.18,1.78,1.78,0,0,0-.32-1.09,1,1,0,0,0-.85-.42,1,1,0,0,0-.84.42A1.89,1.89,0,0,0,26.43,51.62Z"/><path class="cls-1" d="M34.26,48.7H32.49v4.92h-.73V48.7H30v-.59h4.27Z"/><path class="cls-1" d="M36.67,53.7a1.78,1.78,0,0,1-1.36-.55,2,2,0,0,1-.52-1.46v-.13A2.53,2.53,0,0,1,35,50.47a1.91,1.91,0,0,1,.65-.75,1.67,1.67,0,0,1,.91-.27,1.55,1.55,0,0,1,1.25.52,2.32,2.32,0,0,1,.44,1.51v.29H35.49a1.43,1.43,0,0,0,.36,1,1.1,1.1,0,0,0,.86.38,1.16,1.16,0,0,0,.63-.16,1.55,1.55,0,0,0,.45-.4l.43.34A1.75,1.75,0,0,1,36.67,53.7ZM36.58,50a1,1,0,0,0-.71.31,1.58,1.58,0,0,0-.36.87h2.06v-.06a1.32,1.32,0,0,0-.29-.82A.87.87,0,0,0,36.58,50Z"/><path class="cls-1" d="M39.84,53.62h-.7V47.8h.7Z"/></g><circle class="cls-2" cx="4" cy="36" r="4"/><circle class="cls-2" cx="36" cy="4" r="4"/><circle class="cls-2" cx="4" cy="20" r="4"/><circle class="cls-2" cx="4" cy="4" r="4"/><circle class="cls-2" cx="20" cy="4" r="4"/><circle class="cls-2" cx="20" cy="20" r="4"/><circle class="cls-2" cx="20" cy="36" r="4"/><circle class="cls-2" cx="36" cy="20" r="4"/><circle class="cls-2" cx="36" cy="36" r="4"/><rect class="cls-2" x="9" y="3.25" width="6" height="1.5"/><rect class="cls-2" x="25" y="3.25" width="6" height="1.5"/><rect class="cls-2" x="25" y="35.25" width="6" height="1.5"/><rect class="cls-2" x="17" y="27.25" width="6" height="1.5" transform="translate(48 8) rotate(90)"/><rect class="cls-2" x="6" y="11.25" width="12" height="1.5" transform="translate(12 -4.97) rotate(45)"/></svg>
